<svg width="40" height="40" viewBox="0 0 40 40" fill="none" xmlns="http://www.w3.org/2000/svg"><circle cx="20" cy="20" r="19.5" stroke="#FF5A26"/><path d="M30 12.122c0-.567-.22-1.1-.62-1.5-.402-.4-.934-.622-1.5-.622-.567 0-1.1.22-1.5.62l-.877.877c-.49-.32-1.065-.493-1.66-.493-.647 0-1.264.206-1.778.58l-.114-.112c-.33-.332-.77-.514-1.237-.514-.468 0-.908.183-1.24.514-.33.33-.513.77-.513 1.24 0 .273.07.534.187.772l-8.46 8.46c-.442.443-.687 1.032-.687 1.66 0 .626.244 1.216.687 1.66l4.05 4.05c.444.442 1.033.686 1.66.686s1.217-.244 1.66-.687l8.46-8.46c.237.118.5.187.772.187.466 0 .907-.182 1.24-.513.33-.332.51-.772.51-1.24 0-.468-.18-.907-.512-1.24l-.113-.11c.737-1.016.774-2.39.086-3.44l.877-.876c.4-.4.62-.93.62-1.5v.003zm-12.613 16.52c-.53.53-1.45.53-1.98 0l-4.05-4.05c-.264-.263-.41-.614-.41-.988s.146-.726.41-.99l8.39-8.39 6.03 6.03-8.39 8.39zm10.472-8.785c-.307.305-.838.305-1.14 0L20.14 13.28c-.152-.152-.236-.353-.236-.57 0-.214.083-.416.236-.568.152-.152.354-.236.57-.236.215 0 .417.083.57.236l.42.42 2.867 2.868 3.29 3.288c.31.314.31.825 0 1.14zm.85-6.906l-1.17 1.17c-.178.178-.186.463-.018.65.625.7.69 1.72.213 2.487l-4.99-4.992c.75-.468 1.81-.387 2.484.215.187.166.472.158.65-.02l1.17-1.168c.44-.444 1.214-.444 1.66 0 .22.222.34.516.34.83 0 .313-.12.607-.342.83z" fill="#FF5A26"/></svg>