<svg width="40" height="40" viewBox="0 0 40 40" fill="none" xmlns="http://www.w3.org/2000/svg"><circle cx="20" cy="20" r="19.5" stroke="#FF5A26"/><path fill-rule="evenodd" clip-rule="evenodd" d="M29 11.482v10.405C29 26.912 24.96 31 20 31c-4.963 0-9-4.088-9-9.113V11.482c0-.173.092-.332.24-.418.15-.087.332-.085.48.004l5.302 3.182c.946-.334 1.943-.505 2.942-.51h.013c.007-.002.015-.003.023-.003h.002c.008 0 .015 0 .022.002h.013c1 .004 1.997.174 2.942.51l5.3-3.183c.15-.088.33-.09.48-.004.147.085.24.245.24.418zM11.95 21.887c0 4.494 3.612 8.15 8.05 8.15 4.437 0 8.047-3.655 8.047-8.148v-9.564l-3.984 2.39c.433.223.85.48 1.243.773.213.156.26.457.104.67-.155.216-.453.263-.664.106-.582-.43-1.218-.78-1.888-1.038l-.01-.004-.012-.005c-.097-.037-.195-.07-.293-.105l-.008 1.625c0 .266-.214.48-.475.48h-.003c-.262-.002-.474-.218-.473-.484l.01-1.873c-.37-.075-.745-.123-1.122-.145l-.008 2.233c0 .267-.213.48-.475.48h-.004c-.262 0-.475-.216-.474-.482l.008-2.23c-.374.023-.748.07-1.117.147l-.01 1.877c0 .266-.213.48-.474.48h-.005c-.262-.002-.474-.22-.473-.484l.008-1.62c-.09.032-.183.065-.273.1-.01.005-.023.008-.034.012l-.013.004c-.74.286-1.43.68-2.06 1.173-.086.07-.188.102-.29.102-.142 0-.282-.066-.376-.188-.16-.21-.123-.513.085-.676.45-.356.936-.665 1.444-.926l-3.984-2.39v9.56zm11.652 2.88c.145-.22.437-.278.652-.13.215.15.272.45.125.67-.49.744-1.307 1.188-2.18 1.188-.04 0-.08-.003-.118-.005l-.033-.003c-.418.722-1.186 1.178-2.01 1.178-.826 0-1.594-.456-2.01-1.177h-.02l-.023.003c-.036.004-.07.007-.107.007-.792 0-1.535-.362-2.037-.993-.164-.207-.135-.51.067-.678.2-.168.496-.137.66.068.323.407.8.64 1.31.64.932 0 1.69-.778 1.69-1.733v-.184l-1.35-1.187c-.15-.13-.203-.344-.135-.533.068-.19.244-.315.44-.315h3.054c.195 0 .37.127.44.316.066.188.013.4-.137.532l-1.373 1.207v.164c0 .956.76 1.733 1.69 1.733.563 0 1.087-.285 1.402-.764zM19.01 26.23c.26.296.633.473 1.03.473s.77-.177 1.033-.47c-.416-.204-.772-.514-1.032-.9-.26.386-.617.696-1.032.9zm-2.344-5.322c.513 0 .93-.427.93-.954 0-.526-.417-.953-.93-.953-.514 0-.93.428-.93.954 0 .527.416.954.93.954zm7.56-.954c0 .527-.415.954-.93.954-.512 0-.93-.427-.93-.954 0-.526.418-.953.93-.953.515 0 .93.428.93.954z" fill="#FF5A26"/></svg>