<svg width="40" height="40" viewBox="0 0 40 40" fill="none" xmlns="http://www.w3.org/2000/svg"><circle cx="20" cy="20" r="19.5" stroke="#FF5A26"/><path fill-rule="evenodd" clip-rule="evenodd" d="M9.272 14h-.014c-.123 0-.26-.002-.38.01-.127.01-.294.037-.45.13-.375.222-.428.632-.428.952v2.364c0 .157 0 .33.027.48.026.162.088.358.254.52.162.156.36.22.536.253.174.03.38.04.607.04 1.412 0 2.67.273 3.676.913.996.635 1.792 1.657 2.24 3.245.83 2.937 3.525 5.09 6.725 5.09 3.217 0 5.925-2.176 6.738-5.138l.89-.116C30.44 22.647 31 22.01 31 21.258v-.59c0-.764-.575-1.406-1.334-1.49l-.88-.1c-.834-2.93-3.526-5.075-6.72-5.075h-3.903c-.276 0-.5.223-.5.5v.688c0 .276-.224.5-.5.5h-1.085c-.276 0-.5-.224-.5-.5v-.688c0-.277-.223-.5-.5-.5H9.273zM9 15.093c0-.035 0-.065.003-.09.063-.003.143-.002.26 0h5.315v.188c0 .83.672 1.5 1.5 1.5h1.085c.828 0 1.5-.67 1.5-1.5v-.188H22.065c2.842 0 5.224 1.984 5.835 4.647.048.206.22.36.432.384l1.223.136c.253.028.445.242.445.497v.59c0 .25-.187.463-.436.496l-1.23.16c-.207.027-.377.182-.422.388-.593 2.69-2.987 4.7-5.847 4.7-2.74 0-5.05-1.845-5.762-4.363-.507-1.796-1.44-3.035-2.667-3.817-1.218-.775-2.68-1.07-4.213-1.07-.205 0-.333-.01-.416-.023-.005-.058-.007-.14-.007-.27V15.09zm11.796 5.91c0-.704.57-1.273 1.27-1.273.7 0 1.27.568 1.27 1.27 0 .705-.57 1.274-1.27 1.274-.7 0-1.27-.57-1.27-1.273zm1.27-2.273c-1.254 0-2.27 1.017-2.27 2.27 0 1.256 1.016 2.274 2.27 2.274s2.27-1.018 2.27-2.273c0-1.253-1.016-2.27-2.27-2.27z" fill="#FF5A26"/></svg>