<svg width="22" height="24" viewBox="0 0 22 24" fill="none" xmlns="http://www.w3.org/2000/svg">
<path fill-rule="evenodd" clip-rule="evenodd" d="M10.9658 0.331543H0.347412L2.5012 21.2303L10.9658 23.6542L19.4307 21.2303L21.5844 0.331543" fill="#0066A9"/>
<path fill-rule="evenodd" clip-rule="evenodd" d="M2.84874 20.9718L10.9658 23.2628L19.0832 20.9718L21.1686 0.677356H0.769992L2.84874 20.9718ZM10.9658 24L2.15357 21.5096L0 0H22L19.8531 21.5096L10.9658 24Z" fill="#111840"/>
<path fill-rule="evenodd" clip-rule="evenodd" d="M17.9791 20.0291L19.7104 1.96631H11.041V21.7823" fill="#13A1D1"/>
<path fill-rule="evenodd" clip-rule="evenodd" d="M10.9658 19.3514L5.62272 17.8639L5.2002 13.6203L7.76953 13.5539L7.91248 15.7719L10.8977 16.7148L14.0873 15.4332V12.3983L5.07056 12.2722L4.791 9.8483L11.2454 7.21207L4.64804 7.07887L4.4436 4.65527H17.5565L17.4883 7.21856L11.1021 9.78185L17.0728 9.8551L16.4455 17.7972" fill="#FEFEFE"/>
</svg>
