<svg width="22" height="24" viewBox="0 0 22 24" fill="none" xmlns="http://www.w3.org/2000/svg">
<path fill-rule="evenodd" clip-rule="evenodd" d="M11.0034 0.322021H0.477783L2.54383 21.1793L11.0034 23.5988L19.456 21.1793L21.5895 0.322021" fill="#E4492F"/>
<path fill-rule="evenodd" clip-rule="evenodd" d="M2.88708 20.9169L10.9968 23.1978L19.0993 20.9169L21.1723 0.657172H0.894913L2.88708 20.9169ZM11.0032 23.9999L2.20071 21.5216L0 0H22L19.8061 21.5216L11.0032 23.9999Z" fill="#131741"/>
<path fill-rule="evenodd" clip-rule="evenodd" d="M17.7977 19.9762L19.5877 1.86658H10.9199V21.7839" fill="#E96D31"/>
<path fill-rule="evenodd" clip-rule="evenodd" d="M14.0156 15.4147L10.92 16.6241L7.89803 15.6842V13.6729L5.07144 13.6007L5.41461 17.5579L10.8522 19.2997L16.4114 17.6892L17.1047 9.76825H7.27885L7.00285 7.09273H17.3133L17.4546 4.46973H4.1897L4.95023 12.3187H14.0223" fill="white"/>
</svg>
